<svg width="1257" height="224" viewBox="0 0 1257 224" fill="none" xmlns="http://www.w3.org/2000/svg">
<path d="M152.222 161.5C135.222 145.7 113.122 137.1 89.9224 137.1C82.2224 137.1 74.5224 138.1 67.0224 140C34.2224 148.4 8.82235 174.2 0.822353 207.1C-0.177647 211.2 0.72239 215.4 3.42239 218.7C6.12239 222.1 10.0224 224 14.3224 224H14.4224C20.8224 224 26.3224 219.7 27.8224 213.5C33.4224 190.6 51.0224 172.7 73.9224 166.8C79.1224 165.5 84.5224 164.8 89.9224 164.8C118.822 164.8 144.922 185.2 151.922 213.3C153.522 219.6 159.022 224 165.522 224C169.822 224 173.822 222.1 176.422 218.7C179.022 215.4 179.922 211.1 179.022 207C174.722 189.6 165.422 173.8 152.222 161.5Z" fill="#1034A6"/>
<path d="M112.524 92.9002H81.7241C74.1241 92.9002 67.9242 99.1002 67.9242 106.8C67.9242 114.4 74.1241 120.6 81.7241 120.6H112.324C128.424 120.6 144.124 114.3 155.224 103.3C166.524 92.1002 172.824 77.2002 173.024 61.3002C173.224 45.4002 167.024 30.3002 155.724 18.9002C144.124 7.20019 128.624 0.700195 112.124 0.700195H81.6241C74.0241 0.700195 67.8242 6.9002 67.8242 14.6002C67.8242 22.2002 74.0241 28.4002 81.6241 28.4002H112.324C121.024 28.4002 129.624 32.0002 135.824 38.3002C141.924 44.4002 145.224 52.4002 145.224 60.8002C145.124 69.5002 141.724 77.6002 135.524 83.7002C129.524 89.7002 121.324 92.9002 112.524 92.9002Z" fill="#1034A6"/>
<path d="M30.2226 43.2001C42.0226 43.2001 51.5226 33.6001 51.5226 21.9001C51.5226 10.1001 41.9226 0.600098 30.2226 0.600098C18.4226 0.600098 8.92265 10.2001 8.92265 21.9001C8.82265 33.7001 18.4226 43.2001 30.2226 43.2001Z" fill="#1034A6"/>
<path d="M30.2226 120.9C42.0226 120.9 51.5226 111.3 51.5226 99.6001C51.5226 87.8001 41.9226 78.3 30.2226 78.3C18.4226 78.3 8.92265 87.9001 8.92265 99.6001C8.82265 111.4 18.4226 120.9 30.2226 120.9Z" fill="#1034A6"/>
<path d="M424.821 89.6001C424.821 81.0001 423.221 73.6001 420.121 67.4001C416.921 61.2001 412.621 56.4001 407.021 53.1001C401.421 49.7001 395.521 47.3001 389.221 45.8001C382.921 44.3001 376.121 43.6001 368.721 43.6001H323.821C316.521 43.6001 310.621 49.5001 310.621 56.8001V171.6C310.621 178.9 316.521 184.8 323.821 184.8H327.621C334.921 184.8 340.821 178.9 340.821 171.6V135.4H363.021L397.221 179.7C399.721 182.9 403.621 184.8 407.721 184.8H408.821C419.921 184.8 426.021 172 419.221 163.4L394.021 131.5C414.521 125 424.821 111 424.821 89.6001ZM387.221 105.2C382.721 108.5 377.021 110.1 370.121 110.1H340.821V70.1001H370.121C377.121 70.1001 382.821 71.7001 387.321 74.9001C391.721 78.1001 394.021 83.2001 394.021 90.0001C393.921 96.9001 391.721 101.9 387.221 105.2Z" fill="#1034A6"/>
<path d="M561.221 43.6001H557.621C550.321 43.6001 544.421 49.5001 544.421 56.8001V130.2C544.421 150.4 533.821 160.5 512.521 160.5C491.421 160.5 480.821 150.4 480.821 130.2V56.8001C480.821 49.5001 474.921 43.6001 467.621 43.6001H463.821C456.521 43.6001 450.621 49.5001 450.621 56.8001V131.8C450.621 139.9 451.721 147.1 454.021 153.6C456.321 160.1 459.421 165.4 463.321 169.5C467.221 173.7 471.821 177.2 477.221 180C482.621 182.8 488.221 184.8 494.021 186C499.921 187.1 506.021 187.7 512.521 187.7C519.021 187.7 525.121 187.1 531.021 186C536.921 184.9 542.521 182.9 547.821 180C553.221 177.2 557.821 173.7 561.721 169.5C565.621 165.3 568.721 160 571.021 153.6C573.321 147.1 574.421 139.9 574.421 131.8V56.8001C574.421 49.5001 568.521 43.6001 561.221 43.6001Z" fill="#1034A6"/>
<path d="M713.924 43.6001H710.124C702.824 43.6001 696.924 49.5001 696.924 56.8001V116.4C696.924 123.5 697.124 130 697.524 135.8L635.724 49.1001C633.224 45.6001 629.224 43.6001 624.924 43.6001H616.524C609.224 43.6001 603.324 49.5001 603.324 56.8001V171.6C603.324 178.9 609.224 184.8 616.524 184.8H620.324C627.624 184.8 633.524 178.9 633.524 171.6V112C633.524 104.9 633.324 98.4001 632.924 92.6001L694.724 179.3C697.224 182.8 701.224 184.8 705.524 184.8H713.924C721.224 184.8 727.124 178.9 727.124 171.6V56.8001C727.124 49.5001 721.224 43.6001 713.924 43.6001Z" fill="#1034A6"/>
<path d="M843.021 158.2H785.821V126.7H835.721C843.021 126.7 848.921 120.8 848.921 113.5C848.921 106.2 843.021 100.3 835.721 100.3H785.821V70.2001H841.821C849.121 70.2001 855.021 64.3001 855.021 57.0001V56.8001C855.021 49.5001 849.121 43.6001 841.821 43.6001H768.821C761.521 43.6001 755.621 49.5001 755.621 56.8001V171.6C755.621 178.9 761.521 184.8 768.821 184.8H843.121C850.421 184.8 856.321 178.9 856.321 171.6V171.4C856.221 164.1 850.321 158.2 843.021 158.2Z" fill="#1034A6"/>
<path d="M970.821 157.6H914.821V56.8001C914.821 49.5001 908.921 43.6001 901.621 43.6001H897.821C890.521 43.6001 884.621 49.5001 884.621 56.8001V171.6C884.621 178.9 890.521 184.8 897.821 184.8H970.821C978.121 184.8 984.021 178.9 984.021 171.6V170.8C984.021 163.5 978.121 157.6 970.821 157.6Z" fill="#1034A6"/>
<path d="M1088.02 157.6H1032.02V56.8001C1032.02 49.5001 1026.12 43.6001 1018.82 43.6001H1015.02C1007.72 43.6001 1001.82 49.5001 1001.82 56.8001V171.6C1001.82 178.9 1007.72 184.8 1015.02 184.8H1088.02C1095.32 184.8 1101.22 178.9 1101.22 171.6V170.8C1101.22 163.5 1095.32 157.6 1088.02 157.6Z" fill="#1034A6"/>
<path d="M1251.62 86.6001C1248.42 77.9001 1243.82 70.1001 1237.72 63.2001C1231.62 56.3001 1223.72 50.9001 1214.02 46.9001C1204.32 42.9001 1193.42 40.8 1181.32 40.8C1169.22 40.8 1158.32 42.8001 1148.62 46.9001C1138.92 50.9001 1131.02 56.4001 1124.92 63.2001C1118.82 70.1001 1114.12 77.9001 1111.02 86.6001C1107.82 95.3001 1106.32 104.6 1106.32 114.2C1106.32 123.9 1107.92 133.1 1111.02 141.8C1114.22 150.5 1118.82 158.3 1124.92 165.2C1131.02 172.1 1138.92 177.5 1148.62 181.5C1158.32 185.5 1169.22 187.6 1181.32 187.6C1193.42 187.6 1204.32 185.6 1214.02 181.5C1223.72 177.5 1231.62 172 1237.72 165.2C1243.82 158.3 1248.52 150.5 1251.62 141.8C1254.82 133.1 1256.32 123.8 1256.32 114.2C1256.42 104.5 1254.82 95.3001 1251.62 86.6001ZM1213.82 146.7C1206.12 155.3 1195.32 159.6 1181.32 159.6C1167.22 159.6 1156.32 155.3 1148.62 146.7C1140.92 138.1 1137.12 127.3 1137.12 114.2C1137.12 101.2 1140.92 90.3001 1148.62 81.7001C1156.32 73.1001 1167.22 68.8 1181.32 68.8C1195.32 68.8 1206.12 73.1001 1213.82 81.7001C1221.52 90.3001 1225.32 101.1 1225.32 114.2C1225.32 127.2 1221.52 138.1 1213.82 146.7Z" fill="#1034A6"/>
</svg>
